<?xml version="1.0" standalone="no"?>
<!DOCTYPE svg PUBLIC "-//W3C//DTD SVG 20010904//EN"
 "http://www.w3.org/TR/2001/REC-SVG-20010904/DTD/svg10.dtd">
<svg version="1.0" xmlns="http://www.w3.org/2000/svg"
 width="434.000000pt" height="554.000000pt" viewBox="0 0 434.000000 554.000000"
 preserveAspectRatio="xMidYMid meet">

<g transform="translate(0.000000,554.000000) scale(0.100000,-0.100000)"
fill="#000000" stroke="none">
<path d="M2795 5499 c-562 -57 -958 -169 -1405 -395 -512 -258 -847 -586 -930
-909 -34 -134 -26 -354 21 -525 33 -121 33 -131 5 -209 -113 -313 -137 -677
-66 -1016 120 -580 517 -1080 1055 -1330 254 -119 493 -172 793 -176 84 -2
149 -5 145 -9 -19 -15 -229 -91 -343 -125 -484 -140 -936 -150 -1347 -29 -148
44 -180 52 -240 59 -51 6 -62 3 -93 -17 -88 -58 -177 -350 -141 -461 41 -125
346 -262 716 -323 347 -57 1179 106 1721 337 408 173 802 427 1046 675 147
148 156 159 230 268 70 103 131 227 153 311 33 126 17 307 -41 452 -30 75 -30
82 18 253 48 171 68 317 68 506 0 221 -24 372 -91 583 -202 629 -733 1115
-1382 1265 -163 38 -547 64 -616 41 -16 -5 -21 -4 -17 4 4 6 13 11 19 11 7 0
48 11 92 25 200 64 421 94 745 102 349 8 498 -15 679 -105 159 -79 184 -132
217 -465 8 -80 22 -91 103 -83 70 6 201 44 201 58 0 4 5 8 11 8 18 0 75 63 98
109 59 116 111 311 111 419 0 70 -4 84 -45 169 -87 179 -270 334 -481 407
-241 84 -749 142 -1009 115z m515 -84 c163 -20 357 -58 456 -89 171 -55 358
-195 436 -326 54 -91 65 -169 44 -296 -33 -196 -97 -340 -171 -381 -50 -28
-171 -51 -187 -35 -5 5 -14 47 -19 92 -10 105 -15 128 -46 224 -21 65 -35 89
-73 127 -81 81 -247 153 -442 190 -104 20 -134 21 -383 16 -379 -8 -616 -46
-914 -149 -150 -51 -581 -255 -716 -338 -264 -162 -517 -421 -661 -677 -26
-46 -53 -83 -60 -83 -8 0 -17 0 -21 -1 -18 -1 -34 107 -40 252 -5 127 -3 170
12 234 80 362 565 765 1225 1018 333 128 596 189 975 226 61 6 126 13 145 15
64 8 313 -3 440 -19z m-880 -1068 c41 -3 83 -8 93 -12 9 -4 24 -5 32 -2 8 4
17 2 21 -4 3 -6 12 -8 20 -5 7 3 16 1 19 -4 3 -5 13 -9 23 -8 89 1 356 -119
512 -230 210 -148 410 -389 495 -594 132 -319 165 -558 123 -888 -6 -47 -15
-90 -20 -97 -10 -13 -28 -5 -128 59 -64 41 -300 161 -300 152 0 -3 -16 4 -35
16 -19 12 -35 18 -35 15 0 -4 -11 0 -25 9 -14 9 -25 14 -25 10 0 -3 -11 1 -25
10 -14 9 -25 14 -25 11 0 -3 -10 0 -22 7 -13 7 -26 13 -30 14 -5 1 -10 3 -13
4 -3 1 -9 4 -15 5 -5 1 -11 3 -12 5 -2 1 -10 3 -19 5 -9 1 -26 6 -39 10 -20 6
-21 5 -10 -17 17 -32 51 -68 65 -68 22 0 309 -121 395 -166 47 -25 126 -71
177 -102 89 -55 92 -58 93 -93 1 -94 -183 -459 -231 -459 -11 0 -46 22 -78 48
-172 143 -413 248 -844 365 l-198 54 -41 -20 c-28 -14 -36 -22 -26 -28 7 -4
99 -31 203 -59 105 -28 241 -67 304 -87 332 -103 641 -284 613 -361 -8 -23
-173 -186 -237 -233 -102 -77 -315 -193 -371 -204 -11 -2 -20 -4 -21 -4 -2 -1
-6 -2 -10 -2 -5 -1 -16 -7 -27 -14 -10 -8 -24 -11 -31 -9 -7 3 -16 1 -19 -5
-4 -6 -13 -8 -20 -5 -8 3 -17 1 -20 -5 -4 -6 -13 -8 -20 -5 -8 3 -17 1 -20 -5
-4 -6 -13 -8 -20 -5 -8 3 -17 0 -21 -5 -3 -6 -11 -9 -16 -5 -6 3 -18 2 -27 -2
-9 -4 -27 -6 -39 -5 -11 1 -24 -2 -27 -7 -3 -5 -27 -7 -54 -4 -31 2 -52 0 -56
-7 -9 -15 -182 -15 -191 0 -4 6 -26 9 -49 8 -22 -1 -49 2 -59 6 -9 4 -26 5
-37 2 -11 -3 -23 -1 -26 5 -3 5 -15 8 -25 5 -10 -3 -22 -1 -25 5 -3 5 -12 7
-20 4 -7 -3 -16 -1 -20 5 -3 6 -12 8 -20 5 -7 -3 -16 -1 -20 5 -3 6 -12 8 -19
5 -7 -2 -16 -2 -20 2 -4 4 -11 8 -16 8 -5 1 -11 3 -14 4 -3 1 -9 4 -15 5 -5 1
-11 3 -12 5 -2 1 -10 3 -18 5 -8 2 -26 7 -40 13 -14 5 -28 10 -33 11 -17 2
-173 85 -235 125 -366 235 -620 623 -687 1051 -14 87 -15 411 -2 460 20 74 17
74 93 3 88 -82 180 -158 229 -188 37 -23 38 -23 51 -5 8 10 14 22 14 27 0 4
-30 30 -67 58 -38 27 -116 94 -175 148 -92 84 -106 101 -107 130 -2 71 96 302
188 445 65 100 82 102 139 15 96 -149 246 -297 406 -402 110 -72 159 -96 315
-151 l135 -48 18 23 c11 13 15 27 10 32 -5 5 -69 30 -143 57 -155 55 -195 74
-304 146 -170 110 -341 288 -407 422 l-30 62 20 33 c27 43 146 150 248 223 81
59 331 188 345 180 4 -3 10 -1 14 5 4 6 10 8 15 5 5 -3 11 -1 15 5 4 6 10 8
15 5 5 -3 11 -1 15 5 4 6 10 8 15 5 5 -3 11 -1 15 4 3 6 12 8 19 5 8 -3 17 -1
20 5 4 6 13 8 20 5 8 -3 17 -1 20 5 4 6 13 8 21 4 9 -3 21 0 29 6 7 6 16 8 19
5 3 -4 14 -3 24 1 10 4 32 7 49 6 18 -1 34 1 37 6 5 8 190 8 327 0z m1615
-2391 c22 -91 22 -242 0 -326 -39 -151 -172 -356 -339 -525 -284 -285 -771
-580 -1241 -750 -413 -149 -1103 -280 -1382 -262 -271 18 -624 132 -735 238
-36 34 -38 39 -38 96 0 117 68 313 116 335 28 13 112 -2 299 -55 217 -62 352
-80 595 -81 126 0 250 5 300 13 329 49 618 136 980 295 91 41 203 86 250 101
443 145 824 456 1059 867 34 58 61 111 61 116 0 12 41 21 51 13 4 -4 14 -37
24 -75z"/>
<path d="M2945 5413 c-203 -11 -553 -59 -715 -98 -439 -107 -894 -314 -1218
-555 -48 -36 -135 -112 -193 -170 -155 -154 -246 -302 -278 -450 -24 -112 -3
-410 29 -410 4 0 26 33 49 74 137 249 423 537 686 688 130 74 502 254 605 292
331 122 572 166 1015 182 196 7 359 -5 480 -36 177 -45 331 -127 392 -208 42
-55 80 -177 94 -300 14 -116 21 -125 87 -107 66 17 85 28 125 76 59 69 127
292 127 420 0 163 -195 380 -422 470 -125 49 -458 111 -672 124 -50 3 -102 7
-116 8 -14 2 -47 1 -75 0z"/>
<path d="M1048 3703 c-69 -80 -162 -268 -214 -431 l-14 -44 53 -55 c57 -61
207 -190 266 -229 l38 -25 53 36 c121 81 315 106 415 53 110 -58 165 -161 165
-309 l0 -80 35 -15 c57 -23 58 -22 51 59 -9 93 6 202 39 297 15 41 27 81 28
88 1 9 -49 32 -145 67 -163 59 -259 110 -381 201 -106 80 -264 243 -322 333
-25 39 -47 71 -49 71 -2 0 -10 -8 -18 -17z"/>
<path d="M3023 3560 c-148 -27 -378 -153 -418 -231 -28 -54 6 -97 69 -85 27 5
34 2 44 -16 22 -43 42 -110 52 -177 6 -36 20 -96 31 -133 11 -36 19 -72 18
-80 -2 -14 2 -28 36 -105 37 -84 87 -101 143 -50 28 26 28 40 -3 73 -14 15
-28 39 -31 53 -2 14 -9 40 -14 57 -6 17 -10 44 -10 60 0 28 3 31 33 31 17 0
54 8 81 18 l49 18 176 -58 c97 -32 183 -59 191 -60 8 -1 23 -5 32 -9 9 -4 22
-5 28 -1 5 3 16 3 23 -2 18 -11 36 -12 43 -2 3 5 10 7 15 3 15 -9 57 22 73 55
14 26 14 30 -2 43 -9 8 -91 34 -182 57 -168 45 -270 78 -270 89 0 3 18 33 39
66 64 98 84 151 79 208 -13 133 -152 208 -325 178z m156 -148 c36 -27 39 -72
8 -125 -56 -95 -144 -173 -227 -202 -46 -16 -47 -16 -66 68 -8 34 -26 87 -41
119 -14 31 -23 64 -20 72 7 18 112 72 165 86 56 14 151 5 181 -18z"/>
<path d="M2251 3330 c-51 -24 -179 -148 -210 -205 -12 -22 -25 -47 -30 -55
-21 -36 -60 -140 -76 -205 -25 -102 -18 -275 12 -330 13 -22 23 -47 23 -55 0
-21 65 -83 110 -106 55 -28 157 -22 206 11 22 15 51 29 67 32 15 3 27 11 27
17 1 6 19 25 40 41 85 64 282 325 310 409 6 20 16 38 21 41 5 4 9 21 9 38 0
25 -6 35 -27 45 -15 6 -32 12 -39 12 -13 0 -54 -63 -54 -82 0 -6 -10 -25 -22
-42 -13 -17 -31 -47 -41 -66 -27 -54 -112 -164 -178 -229 -69 -69 -164 -121
-222 -121 -57 0 -101 46 -117 125 -27 128 6 345 60 403 11 12 20 28 20 36 0
23 100 125 144 148 l39 20 -8 -24 c-4 -12 -9 -40 -12 -60 -5 -34 -2 -39 28
-57 19 -12 41 -21 51 -21 32 0 65 56 79 130 12 66 11 73 -8 98 -52 70 -121 88
-202 52z"/>
<path d="M2180 3065 c-7 -8 -10 -21 -7 -29 6 -15 357 -136 394 -136 23 0 48
33 38 50 -3 6 -13 10 -21 10 -8 0 -95 27 -193 60 -98 33 -183 60 -189 60 -5 0
-15 -7 -22 -15z"/>
<path d="M1415 3001 c-87 -22 -135 -43 -178 -75 -19 -15 -39 -26 -45 -26 -7 0
-12 -7 -12 -16 0 -8 -13 -28 -29 -44 -46 -47 -101 -202 -116 -330 -8 -69 9
-199 34 -256 25 -55 108 -139 164 -164 70 -32 137 -27 232 20 107 51 174 122
243 257 91 177 107 348 45 483 -35 75 -69 111 -135 140 -66 29 -122 32 -203
11z m162 -131 c62 -38 88 -198 55 -342 -25 -106 -107 -226 -191 -280 -56 -35
-129 -38 -179 -8 -76 47 -105 221 -63 375 29 103 76 205 96 205 8 0 15 7 15
15 0 49 201 75 267 35z"/>
<path d="M1407 2866 c-61 -17 -76 -31 -56 -51 20 -20 252 -124 262 -118 12 7
-1 70 -23 113 -29 57 -100 79 -183 56z"/>
<path d="M1296 2781 c-10 -11 -15 -25 -11 -31 14 -23 321 -163 337 -154 13 8
9 51 -4 61 -7 5 -53 27 -103 48 -49 20 -112 49 -140 64 -27 14 -53 27 -56 29
-3 1 -13 -6 -23 -17z"/>
<path d="M2136 2981 c-10 -11 -28 -54 -42 -96 -44 -139 -27 -305 37 -359 17
-14 38 -26 47 -26 41 0 129 55 199 122 75 73 192 232 180 245 -6 6 -385 133
-398 133 -3 0 -14 -9 -23 -19z"/>
<path d="M2757 2879 c-7 -27 -1 -39 19 -39 11 0 14 8 12 27 -4 33 -24 41 -31
12z"/>
<path d="M2702 2774 c-55 -93 -147 -211 -219 -281 -41 -39 -70 -74 -65 -77 5
-3 84 -26 176 -51 424 -115 708 -239 846 -371 20 -19 40 -34 46 -34 27 0 193
320 210 407 6 28 2 32 -88 90 -134 87 -350 192 -510 249 -37 13 -38 13 -53
-16 -19 -36 -62 -60 -109 -60 -49 0 -91 41 -115 109 -33 94 -76 107 -119 35z"/>
<path d="M1807 2574 c-4 -4 -7 -17 -7 -30 0 -18 12 -26 68 -47 37 -14 68 -24
70 -22 11 10 -31 77 -53 85 -44 17 -70 21 -78 14z"/>
<path d="M3971 1953 c-37 -78 -110 -192 -188 -294 -223 -293 -548 -525 -894
-640 -68 -22 -177 -65 -241 -95 -309 -144 -608 -240 -920 -296 -107 -20 -158
-23 -398 -23 -311 0 -390 10 -656 85 -78 22 -162 43 -186 46 -40 6 -47 4 -66
-21 -28 -35 -57 -114 -76 -208 -21 -100 -21 -97 19 -144 100 -117 505 -243
782 -243 312 0 912 120 1303 262 468 169 937 453 1226 742 149 149 209 230
279 371 62 125 85 203 85 290 0 63 -24 193 -38 207 -4 4 -18 -13 -31 -39z"/>
</g>
</svg>
